<svg width="29" height="29" viewBox="0 0 29 29" fill="none" xmlns="http://www.w3.org/2000/svg">
<path d="M13.768 16.888C13.432 14.376 16.84 13.816 16.84 12.264C16.84 11.288 16.072 10.744 14.808 10.744C13.832 10.744 13.032 11.192 12.248 12.008L10.936 10.808C11.96 9.624 13.368 8.84 15.08 8.84C17.4 8.84 19.096 9.928 19.096 12.056C19.096 14.392 15.592 14.68 15.848 16.888H13.768ZM14.824 21.16C13.992 21.16 13.4 20.568 13.4 19.736C13.4 18.904 14.008 18.328 14.824 18.328C15.624 18.328 16.232 18.904 16.232 19.736C16.232 20.568 15.624 21.16 14.824 21.16Z" fill="black"/>
<circle cx="14.5" cy="14.5" r="14" stroke="black" stroke-opacity="0.7"/>
</svg>
